# Blender v3.2.0 OBJ File: ''
# www.blender.org
mtllib lowpolytest01.mtl
o torso_Cube.001
v -0.084080 1.804144 0.107231
v -0.084080 1.804144 -0.107231
v -0.084080 0.713654 -0.107231
v -0.084080 0.713654 0.107231
v 0.081717 1.804144 -0.107231
v 0.081717 0.713654 -0.107231
v 0.081717 1.804144 0.107231
v 0.081717 0.713654 0.107231
v 0.315555 1.067968 0.109023
v 0.315555 1.067968 -0.109023
v -0.321964 1.067968 -0.109023
v -0.321964 1.067968 0.109023
v 0.315555 0.935709 -0.109023
v -0.321964 0.935709 -0.109023
v 0.315555 0.935709 0.109023
v -0.321964 0.935709 0.109023
v 0.372416 1.381875 0.143566
v 0.372416 1.381875 -0.143567
v -0.378826 1.381875 -0.143566
v -0.378826 1.381875 0.143567
v 0.372416 1.266304 -0.143567
v -0.378826 1.266304 -0.143566
v 0.372416 1.266304 0.143566
v -0.378826 1.266304 0.143567
v 0.354586 1.766980 0.143566
v 0.354586 1.766980 -0.143567
v -0.360996 1.766980 -0.143566
v -0.360996 1.766980 0.143567
v 0.354586 1.651408 -0.143567
v -0.360996 1.651408 -0.143566
v 0.354586 1.651408 0.143566
v -0.360996 1.651408 0.143567
v 0.379844 1.274610 0.143566
v 0.379844 1.274610 -0.143567
v 0.355126 1.767341 -0.143566
v 0.355126 1.767341 0.143567
v 0.270494 1.266654 0.143566
v 0.246979 1.759335 0.143567
v 0.246979 1.759335 -0.143566
v 0.270494 1.266654 -0.143567
v -0.358361 1.767341 0.143567
v -0.250214 1.759335 0.143567
v -0.250214 1.759335 -0.143566
v -0.358361 1.767341 -0.143566
v -0.383079 1.274610 -0.143567
v -0.273729 1.266654 -0.143567
v -0.383079 1.274610 0.143566
v -0.273729 1.266654 0.143566
v 0.360390 1.578580 0.143566
v 0.360390 1.578580 -0.143567
v -0.366800 1.578580 -0.143566
v -0.366800 1.578580 0.143567
v 0.360390 1.463009 -0.143567
v -0.366800 1.463009 -0.143566
v 0.360390 1.463009 0.143566
v -0.366800 1.463009 0.143567
vn -1.0000 0.0000 0.0000
vn 0.0000 0.0000 -1.0000
vn 1.0000 0.0000 0.0000
vn 0.0000 -0.0000 1.0000
vn 0.0000 -1.0000 0.0000
vn 0.0000 1.0000 0.0000
vn 0.9987 0.0501 0.0000
vn -0.0738 0.9973 0.0000
vn -0.9989 -0.0477 0.0000
vn 0.0726 -0.9974 0.0000
vn 0.0738 0.9973 0.0000
vn -0.9987 0.0501 0.0000
vn -0.0726 -0.9974 0.0000
vn 0.9989 -0.0477 0.0000
usemtl Material.001
s 1
f 1//1 2//1 3//1 4//1
f 2//2 5//2 6//2 3//2
f 5//3 7//3 8//3 6//3
f 7//4 1//4 4//4 8//4
f 4//5 3//5 6//5 8//5
f 7//6 5//6 2//6 1//6
f 9//6 10//6 11//6 12//6
f 10//2 13//2 14//2 11//2
f 13//5 15//5 16//5 14//5
f 15//4 9//4 12//4 16//4
f 12//1 11//1 14//1 16//1
f 15//3 13//3 10//3 9//3
f 17//6 18//6 19//6 20//6
f 18//2 21//2 22//2 19//2
f 21//5 23//5 24//5 22//5
f 23//4 17//4 20//4 24//4
f 20//1 19//1 22//1 24//1
f 23//3 21//3 18//3 17//3
f 25//6 26//6 27//6 28//6
f 26//2 29//2 30//2 27//2
f 29//5 31//5 32//5 30//5
f 31//4 25//4 28//4 32//4
f 28//1 27//1 30//1 32//1
f 31//3 29//3 26//3 25//3
f 33//7 34//7 35//7 36//7
f 37//4 33//4 36//4 38//4
f 36//8 35//8 39//8 38//8
f 40//9 37//9 38//9 39//9
f 34//2 40//2 39//2 35//2
f 37//10 40//10 34//10 33//10
f 41//11 42//11 43//11 44//11
f 45//2 44//2 43//2 46//2
f 47//12 41//12 44//12 45//12
f 48//13 47//13 45//13 46//13
f 48//4 42//4 41//4 47//4
f 46//14 43//14 42//14 48//14
f 49//6 50//6 51//6 52//6
f 50//2 53//2 54//2 51//2
f 53//5 55//5 56//5 54//5
f 55//4 49//4 52//4 56//4
f 52//1 51//1 54//1 56//1
f 55//3 53//3 50//3 49//3
o rightarm_Cube.002
v -0.392329 1.594648 0.103415
v -0.598928 1.604417 0.103415
v -0.598928 1.604417 -0.103415
v -0.392329 1.594648 -0.103415
v -0.384218 1.766163 -0.103415
v -0.590818 1.775932 -0.103415
v -0.384218 1.766163 0.103415
v -0.590818 1.775932 0.103415
v -0.424002 1.161060 0.092257
v -0.608310 1.169776 0.092257
v -0.608310 1.169776 -0.092257
v -0.424002 1.161060 -0.092257
v -0.420385 1.237565 -0.092257
v -0.604693 1.246280 -0.092257
v -0.420385 1.237565 0.092257
v -0.601075 1.322785 0.092257
v -0.416767 1.314069 0.092257
v -0.416767 1.314069 -0.092257
v -0.601075 1.322785 -0.092257
v -0.604693 1.246280 0.092257
v -0.461167 0.729504 0.075518
v -0.612035 0.736638 0.075518
v -0.612035 0.736638 -0.075518
v -0.461167 0.729504 -0.075518
v -0.437105 1.238355 -0.075518
v -0.587973 1.245489 -0.075518
v -0.437105 1.238355 0.075518
v -0.563911 1.754341 0.075518
v -0.413043 1.747207 0.075518
v -0.413043 1.747207 -0.075518
v -0.563911 1.754341 -0.075518
v -0.587973 1.245489 0.075518
vn -0.0472 -0.9989 0.0000
vn 0.0000 0.0000 -1.0000
vn 0.9989 -0.0472 0.0000
vn 0.0472 0.9989 0.0000
vn 0.0000 -0.0000 1.0000
vn -0.9989 0.0472 0.0000
usemtl Material.001
s 1
f 57//15 58//15 59//15 60//15
f 61//16 60//16 59//16 62//16
f 63//17 57//17 60//17 61//17
f 64//18 63//18 61//18 62//18
f 64//19 58//19 57//19 63//19
f 62//20 59//20 58//20 64//20
f 65//15 66//15 67//15 68//15
f 69//16 68//16 67//16 70//16
f 71//17 65//17 68//17 69//17
f 72//18 73//18 74//18 75//18
f 76//19 66//19 65//19 71//19
f 70//20 67//20 66//20 76//20
f 77//15 78//15 79//15 80//15
f 81//16 80//16 79//16 82//16
f 83//17 77//17 80//17 81//17
f 84//18 85//18 86//18 87//18
f 88//19 78//19 77//19 83//19
f 82//20 79//20 78//20 88//20
f 87//20 82//20 88//20 84//20
f 84//19 88//19 83//19 85//19
f 85//17 83//17 81//17 86//17
f 86//16 81//16 82//16 87//16
f 75//20 70//20 76//20 72//20
f 72//19 76//19 71//19 73//19
f 73//17 71//17 69//17 74//17
f 74//16 69//16 70//16 75//16
o leftarm_Cube.003
v 0.440541 1.241120 0.075518
v 0.440541 1.241120 -0.075518
v 0.464942 0.732285 -0.075518
v 0.464942 0.732285 0.075518
v 0.591404 1.248355 -0.075518
v 0.615805 0.739519 -0.075518
v 0.591404 1.248355 0.075518
v 0.615805 0.739519 0.075518
v 0.567003 1.757190 0.075518
v 0.567003 1.757190 -0.075518
v 0.416140 1.749955 -0.075518
v 0.416140 1.749955 0.075518
v 0.423821 1.240318 0.092257
v 0.423821 1.240318 -0.092257
v 0.427490 1.163816 -0.092257
v 0.427490 1.163816 0.092257
v 0.608124 1.249156 -0.092257
v 0.611792 1.172654 -0.092257
v 0.608124 1.249156 0.092257
v 0.611792 1.172654 0.092257
v 0.604455 1.325658 0.092257
v 0.604455 1.325658 -0.092257
v 0.420153 1.316820 -0.092257
v 0.420153 1.316820 0.092257
v 0.387303 1.768892 0.103415
v 0.387303 1.768892 -0.103415
v 0.395527 1.597383 -0.103415
v 0.395527 1.597383 0.103415
v 0.593896 1.778799 -0.103415
v 0.602121 1.607290 -0.103415
v 0.593896 1.778799 0.103415
v 0.602121 1.607290 0.103415
vn -0.9989 -0.0479 0.0000
vn -0.0000 0.0000 -1.0000
vn 0.9989 0.0479 0.0000
vn 0.0000 -0.0000 1.0000
vn 0.0479 -0.9989 0.0000
vn -0.0479 0.9989 0.0000
usemtl Material.001
s 1
f 89//21 90//21 91//21 92//21
f 90//22 93//22 94//22 91//22
f 93//23 95//23 96//23 94//23
f 95//24 89//24 92//24 96//24
f 92//25 91//25 94//25 96//25
f 97//26 98//26 99//26 100//26
f 101//21 102//21 103//21 104//21
f 102//22 105//22 106//22 103//22
f 105//23 107//23 108//23 106//23
f 107//24 101//24 104//24 108//24
f 104//25 103//25 106//25 108//25
f 109//26 110//26 111//26 112//26
f 113//21 114//21 115//21 116//21
f 114//22 117//22 118//22 115//22
f 117//23 119//23 120//23 118//23
f 119//24 113//24 116//24 120//24
f 116//25 115//25 118//25 120//25
f 119//26 117//26 114//26 113//26
f 97//24 100//24 89//24 95//24
f 98//23 97//23 95//23 93//23
f 99//22 98//22 93//22 90//22
f 100//21 99//21 90//21 89//21
f 109//24 112//24 101//24 107//24
f 110//23 109//23 107//23 105//23
f 111//22 110//22 105//22 102//22
f 112//21 111//21 102//21 101//21
o rightleg_Cube.004
v -0.328917 0.467903 0.096864
v -0.328917 0.467903 -0.096865
v -0.328917 0.371272 -0.096865
v -0.328917 0.371272 0.096864
v -0.135188 0.467903 -0.096865
v -0.135188 0.371272 -0.096865
v -0.135188 0.467903 0.096864
v -0.135188 0.371272 0.096864
v -0.135188 0.564533 0.096864
v -0.135188 0.564533 -0.096865
v -0.328917 0.564533 -0.096865
v -0.328917 0.564533 0.096864
v -0.316593 0.000290 0.084066
v -0.316593 0.000290 -0.084066
v -0.148461 0.000290 -0.084066
v -0.148461 0.000290 0.084066
v -0.316593 0.464049 -0.084066
v -0.148461 0.464049 -0.084066
v -0.316593 0.464049 0.084066
v -0.148461 0.861292 0.084066
v -0.148461 0.861292 -0.084066
v -0.316593 0.861292 -0.084066
v -0.316593 0.861292 0.084066
v -0.148461 0.464049 0.084066
v -0.137431 0.102246 0.146166
v -0.137431 0.102246 -0.083269
v -0.330289 0.102246 -0.083269
v -0.330289 0.102246 0.146166
v -0.330289 -0.000060 0.146166
v -0.330289 -0.000060 -0.083269
v -0.137431 -0.000060 -0.083269
v -0.137431 -0.000060 0.146166
vn -1.0000 0.0000 0.0000
vn 0.0000 0.0000 -1.0000
vn 1.0000 0.0000 0.0000
vn 0.0000 -0.0000 1.0000
vn 0.0000 -1.0000 -0.0000
vn 0.0000 1.0000 0.0000
usemtl Material.001
s 1
f 121//27 122//27 123//27 124//27
f 122//28 125//28 126//28 123//28
f 125//29 127//29 128//29 126//29
f 127//30 121//30 124//30 128//30
f 124//31 123//31 126//31 128//31
f 129//32 130//32 131//32 132//32
f 133//31 134//31 135//31 136//31
f 137//28 138//28 135//28 134//28
f 139//27 137//27 134//27 133//27
f 140//32 141//32 142//32 143//32
f 144//30 139//30 133//30 136//30
f 138//29 144//29 136//29 135//29
f 141//29 140//29 144//29 138//29
f 140//30 143//30 139//30 144//30
f 143//27 142//27 137//27 139//27
f 142//28 141//28 138//28 137//28
f 129//30 132//30 121//30 127//30
f 130//29 129//29 127//29 125//29
f 131//28 130//28 125//28 122//28
f 132//27 131//27 122//27 121//27
f 145//32 146//32 147//32 148//32
f 149//31 150//31 151//31 152//31
f 145//30 148//30 149//30 152//30
f 146//29 145//29 152//29 151//29
f 147//28 146//28 151//28 150//28
f 148//27 147//27 150//27 149//27
o leftleg_Cube.005
v 0.319561 0.102246 0.146166
v 0.319561 0.102246 -0.083269
v 0.126704 0.102246 -0.083269
v 0.126704 0.102246 0.146166
v 0.126704 -0.000060 0.146166
v 0.126704 -0.000060 -0.083269
v 0.319561 -0.000060 -0.083269
v 0.319561 -0.000060 0.146166
v 0.306954 0.460353 -0.084066
v 0.306954 0.460353 0.084066
v 0.306954 0.000290 0.084066
v 0.306954 0.000290 -0.084066
v 0.138823 0.460353 0.084066
v 0.138823 0.000290 0.084066
v 0.306954 0.861292 0.084066
v 0.306954 0.861292 -0.084066
v 0.138823 0.861292 -0.084066
v 0.138823 0.861292 0.084066
v 0.138823 0.460353 -0.084066
v 0.138823 0.000290 -0.084066
v 0.320228 0.564533 0.096864
v 0.320228 0.564533 -0.096865
v 0.126499 0.564533 -0.096865
v 0.126499 0.564533 0.096864
v 0.126499 0.371272 0.096864
v 0.126499 0.371272 -0.096865
v 0.320228 0.371272 -0.096865
v 0.320228 0.371272 0.096864
v 0.320228 0.462433 0.096864
v 0.126499 0.462433 0.096864
v 0.320228 0.462433 -0.096865
v 0.126499 0.462433 -0.096865
vn 0.0000 1.0000 0.0000
vn 0.0000 -1.0000 -0.0000
vn 0.0000 -0.0000 1.0000
vn 1.0000 0.0000 0.0000
vn 0.0000 0.0000 -1.0000
vn -1.0000 0.0000 0.0000
usemtl Material.001
s 1
f 153//33 154//33 155//33 156//33
f 157//34 158//34 159//34 160//34
f 153//35 156//35 157//35 160//35
f 154//36 153//36 160//36 159//36
f 155//37 154//37 159//37 158//37
f 156//38 155//38 158//38 157//38
f 161//36 162//36 163//36 164//36
f 162//35 165//35 166//35 163//35
f 167//33 168//33 169//33 170//33
f 165//38 171//38 172//38 166//38
f 171//37 161//37 164//37 172//37
f 166//34 172//34 164//34 163//34
f 173//33 174//33 175//33 176//33
f 177//34 178//34 179//34 180//34
f 181//35 182//35 177//35 180//35
f 183//36 181//36 180//36 179//36
f 184//37 183//37 179//37 178//37
f 182//38 184//38 178//38 177//38
f 169//37 168//37 161//37 171//37
f 170//38 169//38 171//38 165//38
f 167//35 170//35 165//35 162//35
f 168//36 167//36 162//36 161//36
f 176//38 175//38 184//38 182//38
f 175//37 174//37 183//37 184//37
f 174//36 173//36 181//36 183//36
f 173//35 176//35 182//35 181//35
o head_Cube.006
v -0.263730 2.346614 0.472133
v -0.263730 2.346614 -0.052963
v -0.263730 1.930855 -0.052963
v -0.263730 1.930855 0.472133
v 0.261366 2.346614 -0.052963
v 0.261366 1.930855 -0.052963
v 0.261366 2.346614 0.472133
v 0.261366 1.930855 0.472133
v -0.261963 1.824424 0.469196
v -0.261963 1.824424 0.174801
v -0.261963 1.701387 0.174801
v -0.261963 1.701387 0.469196
v -0.167761 1.824424 0.174801
v -0.167761 1.701387 0.174801
v -0.167761 1.824424 0.469196
v -0.167761 1.701387 0.469196
v 0.164101 1.824424 0.469196
v 0.164101 1.824424 0.174801
v 0.164101 1.701387 0.174801
v 0.164101 1.701387 0.469196
v 0.258303 1.824424 0.174801
v 0.258303 1.701387 0.174801
v 0.258303 1.824424 0.469196
v 0.258303 1.701387 0.469196
v -0.245736 1.824424 0.375722
v 0.242077 1.824424 0.375722
v 0.242077 1.701387 0.375722
v -0.245736 1.701387 0.375722
v 0.242077 1.824424 0.469924
v 0.242077 1.701387 0.469924
v -0.245736 1.824424 0.469924
v -0.245736 1.701387 0.469924
v 0.164101 1.996292 0.177544
v 0.164101 1.701896 0.177544
v 0.164101 1.701896 0.300581
v 0.164101 1.996292 0.300581
v 0.258303 1.701896 0.177544
v 0.258303 1.701896 0.300581
v 0.258303 1.996292 0.177544
v 0.258303 1.996292 0.300581
v -0.261963 1.996292 0.177544
v -0.261963 1.701896 0.177544
v -0.261963 1.701896 0.300581
v -0.261963 1.996292 0.300581
v -0.167761 1.701896 0.177544
v -0.167761 1.701896 0.300581
v -0.167761 1.996292 0.177544
v -0.167761 1.996292 0.300581
vn -1.0000 0.0000 0.0000
vn 0.0000 0.0000 -1.0000
vn 1.0000 0.0000 0.0000
vn 0.0000 -0.0000 1.0000
vn 0.0000 -1.0000 -0.0000
vn 0.0000 1.0000 0.0000
usemtl Material.001
s 1
f 185//39 186//39 187//39 188//39
f 186//40 189//40 190//40 187//40
f 189//41 191//41 192//41 190//41
f 191//42 185//42 188//42 192//42
f 188//43 187//43 190//43 192//43
f 191//44 189//44 186//44 185//44
f 193//39 194//39 195//39 196//39
f 194//40 197//40 198//40 195//40
f 197//41 199//41 200//41 198//41
f 199//42 193//42 196//42 200//42
f 196//43 195//43 198//43 200//43
f 199//44 197//44 194//44 193//44
f 201//39 202//39 203//39 204//39
f 202//40 205//40 206//40 203//40
f 205//41 207//41 208//41 206//41
f 207//42 201//42 204//42 208//42
f 204//43 203//43 206//43 208//43
f 207//44 205//44 202//44 201//44
f 209//40 210//40 211//40 212//40
f 210//41 213//41 214//41 211//41
f 213//42 215//42 216//42 214//42
f 215//39 209//39 212//39 216//39
f 212//43 211//43 214//43 216//43
f 215//44 213//44 210//44 209//44
f 217//39 218//39 219//39 220//39
f 218//43 221//43 222//43 219//43
f 221//41 223//41 224//41 222//41
f 223//44 217//44 220//44 224//44
f 220//42 219//42 222//42 224//42
f 223//40 221//40 218//40 217//40
f 225//39 226//39 227//39 228//39
f 226//43 229//43 230//43 227//43
f 229//41 231//41 232//41 230//41
f 231//44 225//44 228//44 232//44
f 228//42 227//42 230//42 232//42
f 231//40 229//40 226//40 225//40
